<?xml version="1.0" encoding="utf-8"?>
<!-- Generator: Adobe Illustrator 24.1.1, SVG Export Plug-In . SVG Version: 6.00 Build 0)  -->
<svg version="1.1" id="Capa_1" xmlns="http://www.w3.org/2000/svg" xmlns:xlink="http://www.w3.org/1999/xlink" x="0px" y="0px"
	 viewBox="0 0 383.4 383.3" style="enable-background:new 0 0 383.4 383.3;" xml:space="preserve">
<style type="text/css">
	.st0{fill:#FFFFFF;}
</style>
<g id="Capa_2_1_">
	<g id="texto">
		<path class="st0" d="M383.4,203.6c-1,7-1.7,14.1-3,21c-7.8,43.8-28.5,80.5-61.5,110.1c-27.5,24.6-59.6,40.2-96.1,45.9
			c-50.3,7.9-96.9-2.1-138.9-30.9C41.8,321,14.6,281.3,4.4,231.2C-8,170.3,6,115.3,46,67.6c28.8-34.3,65.8-55.6,109.8-64.2
			c6.7-1.3,13.6-1.9,20.4-2.8c1.2-0.2,2.4-0.4,3.6-0.7h24c6.5,0.9,13.1,1.5,19.6,2.6c36,6.1,67.8,21.2,95.1,45.5
			c33.4,29.7,54.2,66.5,62,110.6c1.2,7,2,14,3,21L383.4,203.6z M367.5,191.6c0-96.7-79-175.7-175.7-175.8S16,94.9,16,191.6
			s79,175.7,175.7,175.8S367.5,288.3,367.5,191.6L367.5,191.6z"/>
		<path class="st0" d="M200.7,227.4c13.1-13.1,26.3-26.3,39.4-39.4c0.9-1,1.9-1.9,3-2.8c3.5-2.6,8.5-1.9,11.1,1.7
			c2.1,2.9,2.1,6.8-0.2,9.6c-0.8,1-1.6,1.9-2.5,2.7c-17.4,17.4-34.7,34.8-52.1,52.1c-5.8,5.8-9.3,5.8-15.2-0.1
			c-17.5-17.5-34.9-34.9-52.4-52.4c-1.5-1.4-2.7-3.2-3.5-5.1c-1.1-3.2,0.2-6.8,3.1-8.5c2.7-2,6.4-2,9.1,0.1c1.6,1.2,3,2.6,4.4,4.1
			c12.7,12.7,25.3,25.4,38.9,39V91.8c0-1.1-0.1-2.2,0-3.4c0.3-5.2,3.4-8.5,8.1-8.4s7.7,3.3,8,8.6c0,1.1,0,2.3,0,3.4v135.2
			L200.7,227.4z"/>
		<path class="st0" d="M191.7,271.5h84.5c1.4,0,2.8,0,4.1,0.1c3.9,0.3,7,3.4,7.2,7.3c0.2,4-2.6,7.6-6.6,8.4
			c-1.1,0.1-2.2,0.2-3.4,0.2c-57.2,0-114.4,0-171.7,0c-1.6,0.1-3.2-0.1-4.8-0.6c-3.4-1.2-5.6-4.6-5.2-8.2c0.4-3.7,3.3-6.7,7.1-7
			c1.4-0.1,2.7-0.1,4.1-0.1L191.7,271.5z"/>
	</g>
</g>
</svg>
