<svg xmlns="http://www.w3.org/2000/svg" viewBox="0 0 383.03 383.2"><g id="Capa_2" data-name="Capa 2"><g id="texto"><path d="M179.54,0h23.94a20.8,20.8,0,0,0,2.88.61c29.82,2.23,57.74,10.79,83.17,26.45,49.44,30.44,79.9,74.22,90.56,131.46,1.3,6.95,2,14,2.94,21V203.5a22.2,22.2,0,0,0-.62,2.89,190.86,190.86,0,0,1-25.85,82.29c-38.17,65.83-115.32,103.5-190.64,92.68C114.75,374,72.77,350.11,40.83,309.49,9.19,269.27-3.87,223.17,1,172.32,4.87,131.54,20.71,95.59,47.92,64.93c29.73-33.49,66.73-54.33,111-62C165.72,1.7,172.65,1,179.54,0ZM302.06,191.61c-.69-18.16-.59-36.54-2.26-54.75-2-22-12.92-38.74-33.38-48.33a68.53,68.53,0,0,0-28.29-6.18c-25.93-.37-51.86-.69-77.78-.59a169.12,169.12,0,0,0-28.28,2.17c-22.39,3.91-38.25,16.45-45.59,38.28a77.49,77.49,0,0,0-4,22.31c-.67,26-.73,52.1-.75,78.15a235.33,235.33,0,0,0,1.38,23.88c2.83,27.82,21.89,48.61,49.57,52.57,13.74,2,27.82,2.21,41.74,2.21,23.92,0,47.91.12,71.75-1.55,29.68-2.08,51.24-24.11,53.72-53.84C301.37,228,301.37,209.85,302.06,191.61Z"/><path d="M101,191.51c.49-16.87.55-33.46,1.54-50,1.39-23,16-38.22,38.93-38.83q49.86-1.32,99.77,0c23.5.63,38.51,15.68,39.14,39.27.89,33.37.77,66.78-.07,100.15-.43,17-8.92,30.13-25.85,35.69a69.43,69.43,0,0,1-20.55,3.28c-28.28.35-56.58.41-84.86,0a69.75,69.75,0,0,1-22.28-3.95c-16-5.8-23.09-18.87-24.16-35C101.49,225.13,101.47,208.16,101,191.51Zm147,.07A56.44,56.44,0,1,0,191.26,248,56.35,56.35,0,0,0,247.94,191.58Zm15.42-58.91a13.14,13.14,0,1,0-12.82,13.27A13.1,13.1,0,0,0,263.36,132.67Z"/><path d="M191.63,228.17a36.65,36.65,0,1,1,36.52-36.67A36.71,36.71,0,0,1,191.63,228.17Z"/></g></g></svg>