<svg xmlns="http://www.w3.org/2000/svg" viewBox="0 0 383.28 383.41"><g id="Capa_2" data-name="Capa 2"><g id="texto"><path d="M383.28,179.76V203c-.21,1.2-.47,2.39-.64,3.6-1,7.52-1.7,15.12-3.14,22.57-14.92,77.17-77.34,138.14-154.87,151.33-7,1.19-14,2-21,2.94h-24a19.17,19.17,0,0,0-2.85-.64,184.56,184.56,0,0,1-49.91-10.66A191.66,191.66,0,0,1,7.18,139.83C40.9,19.44,179.12-36.95,287.67,26.07c51.16,29.71,81.91,74.68,92.73,133C381.66,165.91,382.33,172.86,383.28,179.76ZM292.4,292.49c.07-1.32.16-2.18.16-3.05,0-24.08.25-48.16-.15-72.23a160.73,160.73,0,0,0-2.88-28.2c-3.09-15.78-11.76-27.46-27.93-31.91a71.87,71.87,0,0,0-16.94-2.5c-17.2-.44-31.49,5.46-41.16,20.43-.16.25-.52.39-1.31,1V158.15H162.5V292.42h41.21v-4.31c0-21-.05-41.92,0-62.88,0-7.75.61-15.48,4.31-22.55,4.53-8.67,13.46-12.51,25.31-11,8.24,1.07,14,6.65,15.8,16.16a83.71,83.71,0,0,1,1.48,15.23c.17,21.71.09,43.42.1,65.12v4.27ZM94.4,158.11V292.43h41.23V158.11Zm20.46-18.66a24.32,24.32,0,1,0-24.29-24.17A24.34,24.34,0,0,0,114.86,139.45Z"/></g></g></svg>