<svg xmlns="http://www.w3.org/2000/svg" width="73.001" height="22.4" viewBox="0 0 73.001 22.4">
  <g id="texto" transform="translate(0 0.001)">
    <path id="Trazado_1" data-name="Trazado 1" d="M12.51,22.06V8.87a4.6,4.6,0,0,0-1.1-3.19,3.71,3.71,0,0,0-3-1.23A3.73,3.73,0,0,0,5.53,5.78,4.6,4.6,0,0,0,4.37,8.87V22.06H.05V8.87A8.78,8.78,0,0,1,2.47,2.73a7.89,7.89,0,0,1,6-2.6A8.06,8.06,0,0,1,14.64,2.8v0A8,8,0,0,1,20.91.13a7.86,7.86,0,0,1,6,2.6,10.53,10.53,0,0,1,1,1.22h-.05a10.56,10.56,0,0,0-2.67,7.11H25V8.87a4.6,4.6,0,0,0-1.17-3.09,3.71,3.71,0,0,0-2.9-1.33,3.83,3.83,0,0,0-3,1.23,4.67,4.67,0,0,0-1.08,3.19V22.06Z" fill="#fff"/>
    <path id="Trazado_2" data-name="Trazado 2" d="M20.91.18a7.78,7.78,0,0,1,5.92,2.59,9.63,9.63,0,0,1,1,1.21V4h0a10.65,10.65,0,0,0-2.69,7.1H25V8.87a4.65,4.65,0,0,0-1.19-3.12,3.74,3.74,0,0,0-2.9-1.35,4,4,0,0,0-3.05,1.24,4.78,4.78,0,0,0-1.08,3.23V22H12.56V8.87a4.66,4.66,0,0,0-1.11-3.23,3.8,3.8,0,0,0-3-1.24,3.75,3.75,0,0,0-3,1.35A4.62,4.62,0,0,0,4.32,8.87V22H.11V8.87a8.71,8.71,0,0,1,2.4-6.1A7.8,7.8,0,0,1,8.45.18,8,8,0,0,1,14.6,2.84l.08.09.08-.09A7.93,7.93,0,0,1,20.91.18m0-.1a8,8,0,0,0-6.23,2.69A8.08,8.08,0,0,0,8.45.08a7.91,7.91,0,0,0-6,2.62A8.8,8.8,0,0,0,0,8.87V22.11H4.43V8.87a4.519,4.519,0,0,1,1.139-3A3.69,3.69,0,0,1,8.45,4.5a3.67,3.67,0,0,1,2.92,1.22,4.53,4.53,0,0,1,1.08,3.15V22.11h4.43V8.87A4.62,4.62,0,0,1,18,5.72,3.78,3.78,0,0,1,21,4.5a3.66,3.66,0,0,1,2.86,1.32,4.56,4.56,0,0,1,1.16,3v2.35h.27a10.53,10.53,0,0,1,2.66-7.13L27.93,4l-.05-.09a10,10,0,0,0-1-1.22,7.91,7.91,0,0,0-6-2.62Z" fill="#1d1d1b"/>
    <path id="Trazado_3" data-name="Trazado 3" d="M36.14,22.33a10.77,10.77,0,0,1-7-2.42,12.09,12.09,0,0,1-.92-.83A10.74,10.74,0,0,1,25,11.22a10.73,10.73,0,0,1,2.7-7.28c.2-.23.38-.42.55-.59A11.11,11.11,0,0,1,44,3.35l.06.06L41,6.46h-.06a6.76,6.76,0,0,0-9.66,0,6.6,6.6,0,0,0-2,4.81,6.62,6.62,0,0,0,2,4.83,6.6,6.6,0,0,0,4.83,2h.08v4.28Z" fill="#fff"/>
    <path id="Trazado_4" data-name="Trazado 4" d="M36.14.12A10.75,10.75,0,0,1,44,3.39h0L41.05,6.37h0a6.83,6.83,0,0,0-9.74,0,6.64,6.64,0,0,0-2,4.85,6.829,6.829,0,0,0,6.87,6.87h0v4.17h0a10.71,10.71,0,0,1-6.93-2.41c-.32-.26-.63-.54-.92-.82A10.73,10.73,0,0,1,25,11.22,10.66,10.66,0,0,1,27.74,4c.2-.23.38-.42.55-.59A10.77,10.77,0,0,1,36.14.12m0-.11a10.86,10.86,0,0,0-7.92,3.3c-.18.18-.36.37-.56.6a10.77,10.77,0,0,0-2.73,7.31,10.83,10.83,0,0,0,3.29,7.9,9.19,9.19,0,0,0,.92.83,10.79,10.79,0,0,0,7,2.44h.14V18h-.14a6.56,6.56,0,0,1-4.79-2,6.56,6.56,0,0,1-2-4.79,6.55,6.55,0,0,1,2-4.78,6.74,6.74,0,0,1,9.58,0l.1.1.1-.1L44.07,3.5l.09-.09-.09-.1A10.88,10.88,0,0,0,36.14,0Z" fill="#1d1d1b"/>
    <path id="Trazado_5" data-name="Trazado 5" d="M61.78,22.33a10.83,10.83,0,0,1-7.89-3.25,10.74,10.74,0,0,1-3.27-7.86,10.78,10.78,0,0,1,3.27-7.87,11.11,11.11,0,0,1,15.78,0A10.79,10.79,0,0,1,73,11.22,11.15,11.15,0,0,1,61.78,22.33Zm0-17.95a6.6,6.6,0,0,0-4.83,2,6.6,6.6,0,0,0-2,4.81,6.62,6.62,0,0,0,2,4.83,6.83,6.83,0,0,0,9.66,0,6.74,6.74,0,0,0,0-9.64,6.6,6.6,0,0,0-4.83-2Z" fill="#fff"/>
    <path id="Trazado_6" data-name="Trazado 6" d="M61.78.12a10.75,10.75,0,0,1,7.85,3.27,10.74,10.74,0,0,1,3.27,7.83,10.75,10.75,0,0,1-3.27,7.83,11.1,11.1,0,0,1-18.95-7.83,10.71,10.71,0,0,1,3.25-7.83A10.75,10.75,0,0,1,61.78.12m0,18a6.67,6.67,0,0,0,4.87-2A6.88,6.88,0,1,0,56.91,6.4a6.64,6.64,0,0,0-2,4.85,6.829,6.829,0,0,0,6.87,6.87m0-18.1a10.88,10.88,0,0,0-7.93,3.3,10.82,10.82,0,0,0-3.28,7.91,10.82,10.82,0,0,0,3.28,7.9,11.24,11.24,0,0,0,15.85,0A10.8,10.8,0,0,0,73,11.22a10.87,10.87,0,0,0-3.3-7.91A10.88,10.88,0,0,0,61.78,0Zm0,18A6.56,6.56,0,0,1,57,16a6.56,6.56,0,0,1-2-4.79,6.55,6.55,0,0,1,2-4.78,6.74,6.74,0,0,1,9.58,0,6.54,6.54,0,0,1,2,4.78,6.53,6.53,0,0,1-2,4.79,6.56,6.56,0,0,1-4.79,2Z" fill="#1d1d1b"/>
    <path id="Trazado_7" data-name="Trazado 7" d="M36.06,22.33V9.49a8.87,8.87,0,0,1,1.56-5.06,11.41,11.41,0,0,1,1.3-1.53,10.47,10.47,0,0,1,2.15-1.67A8.81,8.81,0,0,1,45.51.05,9.07,9.07,0,0,1,52.08,2.9a9.08,9.08,0,0,1,2.86,6.59V22H50.62V9.49a5,5,0,0,0-1.51-3.6,5,5,0,0,0-3.6-1.52,5.74,5.74,0,0,0-.68,0,5,5,0,0,0-2.91,1.47,6.279,6.279,0,0,0-.62.73,4.87,4.87,0,0,0-.9,2.87v12h0A9.42,9.42,0,0,1,39,22a11.77,11.77,0,0,1-2.88.35Z" fill="#fff"/>
    <path id="Trazado_8" data-name="Trazado 8" d="M45.51.11A9,9,0,0,1,52,2.94a9,9,0,0,1,2.85,6.55V21.93H50.68V9.49a5,5,0,0,0-1.54-3.64,5,5,0,0,0-3.63-1.53,6,6,0,0,0-.69,0A5,5,0,0,0,41.88,5.8a7.36,7.36,0,0,0-.62.74,4.87,4.87,0,0,0-.91,2.9v12h0a10.75,10.75,0,0,1-1.32.44,11.75,11.75,0,0,1-2.87.35h0V9.49a8.77,8.77,0,0,1,1.56-5A10.93,10.93,0,0,1,41.1,1.28,8.69,8.69,0,0,1,45.51.11m0-.11a8.76,8.76,0,0,0-4.46,1.19,10,10,0,0,0-2.16,1.67A10.33,10.33,0,0,0,37.6,4.4,8.9,8.9,0,0,0,36,9.49v12.9h.14A11.52,11.52,0,0,0,39,22a10.89,10.89,0,0,0,1.33-.43h.08V9.49a4.84,4.84,0,0,1,.9-2.84A5.28,5.28,0,0,1,42,5.93a4.89,4.89,0,0,1,2.87-1.45,4.27,4.27,0,0,1,.68-.05,4.89,4.89,0,0,1,3.56,1.5,4.91,4.91,0,0,1,1.5,3.56V22H55V9.49a9.15,9.15,0,0,0-2.88-6.63A9.11,9.11,0,0,0,45.51,0Z" fill="#1d1d1b"/>
    <path id="Trazado_9" data-name="Trazado 9" d="M50.62,22.06V9.56a8.8,8.8,0,0,1,2.93-6.63A9.84,9.84,0,0,1,60.4.13h.08V4.5h-.06A6.58,6.58,0,0,0,57,6.41a6.6,6.6,0,0,0-2,4.81V22.06Z" fill="#fff"/>
    <path id="Trazado_10" data-name="Trazado 10" d="M60.43.18h0V4.45h0a6.929,6.929,0,0,0-5.5,6.76V22H50.68V9.56A8.75,8.75,0,0,1,53.59,3,9.83,9.83,0,0,1,60.4.18h0m.11-.1H60.4a9.9,9.9,0,0,0-6.89,2.81,8.86,8.86,0,0,0-2.94,6.67V22.11H55V11.22a6.87,6.87,0,0,1,5.43-6.66h.11V.22h0V.08Z" fill="#1d1d1b"/>
  </g>
</svg>
