<svg xmlns="http://www.w3.org/2000/svg" viewBox="0 0 383.03 382.96"><g id="Capa_2" data-name="Capa 2"><g id="texto"><path d="M179.51,0h23.94C210,.85,216.54,1.45,223,2.6c49.63,8.81,90.2,33,120.68,73.09C376.81,119.23,389,168.6,380.3,222.55c-8.08,49.9-32.84,90.48-73,121.11-41.88,32-89.48,44.29-141.68,37.49-38.6-5-72.54-20.91-101.49-46.91C31.35,304.8,10.84,268.3,3,224.85c-1.28-7.08-2-14.26-3-21.4V179.51c.89-6.64,1.59-13.31,2.71-19.91Q12.88,100.22,55.16,57.27C83.8,28.23,118.27,10,158.5,2.94,165.46,1.72,172.51,1,179.51,0Zm176,191.57c.16-90.44-73.33-164-164-164.14s-164,73.29-164.17,164c-.17,90.4,73.36,164,164,164.15S355.38,282.23,355.54,191.57Z"/><path d="M191.84,172.92a32.93,32.93,0,0,1,2.81-3.87q27.6-27.68,55.25-55.29c4.07-4.07,8.94-5.44,14.39-3.56a13.06,13.06,0,0,1,9.12,11.29c.66,5-1.45,8.88-4.91,12.34Q241.2,161,214,188.27a38.23,38.23,0,0,1-3.48,2.69c1.44,1.53,2.32,2.53,3.26,3.47q27.36,27.38,54.75,54.73c3.47,3.45,5.56,7.38,4.88,12.34a13.06,13.06,0,0,1-9.15,11.27c-5.46,1.87-10.31.46-14.38-3.6q-27.65-27.62-55.27-55.26c-.95-1-1.95-1.87-3.08-3-1.11,1-2.11,1.94-3.06,2.89q-27.37,27.36-54.74,54.74c-3.76,3.78-8,5.79-13.46,4.6a13.57,13.57,0,0,1-7.43-22.28c.81-.94,1.73-1.8,2.61-2.68l53.68-53.69c.95-.95,1.85-1.94,2.9-3.06-1.07-1.13-2-2.12-2.93-3.08q-27.5-27.49-55-55c-4.17-4.16-5.81-9-3.91-14.65a13.07,13.07,0,0,1,11.23-9.19c5-.7,8.9,1.37,12.36,4.84q26.93,27,53.92,54C188.83,169.51,189.87,170.76,191.84,172.92Z"/></g></g></svg>