<svg xmlns="http://www.w3.org/2000/svg" viewBox="0 0 383.44 427.43"><defs><style>.cls-1{fill:#f2c231;}.cls-2{fill:#188b81;}</style></defs><g id="Capa_2" data-name="Capa 2"><g id="texto"><path class="cls-1" d="M213.72,427.43q-88.07,0-150.7-62.62Q0,302.19,0,213.72q0-88.08,63-151.1Q125.64,0,213.72,0V69.08q-59.4,0-101.81,42.83Q69.09,154.72,69.08,213.72q0,59.39,42.83,102.21,42.42,42.81,101.81,42.82Z"/><path class="cls-2" d="M310.92,254.61q-29.51,0-50.91,21.42-21.4,21.21-21.41,50.9T260,378q21.42,21.21,50.91,21.21T362,378q21.42-21.41,21.42-51.11T362,276Q340.62,254.61,310.92,254.61Z"/></g></g></svg>