<svg xmlns="http://www.w3.org/2000/svg" viewBox="0 0 383.44 215.22"><defs><style>.cls-1{fill:#f2adba;}.cls-2{fill:#d81b79;}</style></defs><g id="Capa_2" data-name="Capa 2"><g id="texto"><path class="cls-1" d="M321.83,191.72q0-53.28-38.42-91.33Q245,62,191.72,62q-52.92,0-91.33,38.42Q62,138.45,62,191.72H0q0-79,56.17-135.18Q112.72,0,191.72,0q79.36,0,135.54,56.54,56.17,56.18,56.18,135.18Z"/><path class="cls-2" d="M191.63,85.47q-26.46,0-45.67,19.21-19.2,19-19.21,45.66T146,196.19q19.22,19,45.67,19t45.84-19q19.22-19.22,19.21-45.85t-19.21-45.66Q218.27,85.47,191.63,85.47Z"/></g></g></svg>